<svg xmlns="http://www.w3.org/2000/svg" xmlns:xlink="http://www.w3.org/1999/xlink" viewBox="0,0,256,256" width="50px" height="50px" fill-rule="nonzero"><g fill="none" fill-rule="nonzero" stroke="none" stroke-width="none" stroke-linecap="butt" stroke-linejoin="miter" stroke-miterlimit="10" stroke-dasharray="" stroke-dashoffset="0" font-family="none" font-weight="none" font-size="none" text-anchor="none" style="mix-blend-mode: normal"><g transform="scale(5.12,5.12)"><path d="M14,3.99c-5.511,0 -10,4.489 -10,10v22c0,5.511 4.489,10 10,10h22c5.511,0 10,-4.489 10,-10v-22c0,-5.511 -4.489,-10 -10,-10zM14,5.99h22c4.431,0 8,3.569 8,8v22c0,4.431 -3.569,8 -8,8h-22c-4.431,0 -8,-3.569 -8,-8v-22c0,-4.43 3.569,-8 8,-8z" fill="#e5533f" stroke="none" stroke-width="1"></path><path d="M25,5l-20,34" fill="none" stroke="#e5533f" stroke-width="2"></path><path d="M45,30h-25" fill="none" stroke="#e5533f" stroke-width="2"></path><path d="M29,45l-9,-15" fill="none" stroke="#e5533f" stroke-width="2"></path><path d="M32,30l-6,-10" fill="none" stroke="#e5533f" stroke-width="2"></path><path d="M34,5l-23.25,40.125" fill="none" stroke="#e5533f" stroke-width="2"></path></g></g></svg>