<svg xmlns="http://www.w3.org/2000/svg" viewBox="0 0 24 24" fill="white"><path d="M12 .5C5.73.5.5 5.74.5 12.02c0 5.1 3.29 9.42 7.85 10.96.58.1.79-.25.79-.56v-1.98c-3.2.7-3.87-1.54-3.87-1.54-.52-1.33-1.28-1.68-1.28-1.68-1.05-.72.08-.7.08-.7 1.17.08 1.79 1.2 1.79 1.2 1.03 1.76 2.7 1.25 3.36.96.1-.75.4-1.25.72-1.53-2.56-.29-5.26-1.28-5.26-5.7 0-1.26.45-2.3 1.2-3.11-.12-.29-.52-1.47.12-3.06 0 0 .98-.31 3.2 1.2.93-.26 1.92-.39 2.91-.39s1.98.13 2.91.39c2.22-1.51 3.2-1.2 3.2-1.2.64 1.59.24 2.77.12 3.06.75.81 1.2 1.85 1.2 3.11 0 4.43-2.7 5.4-5.27 5.69.42.37.77 1.1.77 2.22v3.29c0 .31.21.66.8.55C20.72 21.43 24 17.1 24 12.02 24 5.74 18.76.5 12 .5z"/></svg>