<svg xmlns="http://www.w3.org/2000/svg" xmlns:xlink="http://www.w3.org/1999/xlink" viewBox="0,0,256,256" width="50px" height="50px" fill-rule="nonzero"><g fill="#e5533f" fill-rule="nonzero" stroke="none" stroke-width="1" stroke-linecap="butt" stroke-linejoin="miter" stroke-miterlimit="10" stroke-dasharray="" stroke-dashoffset="0" font-family="none" font-weight="none" font-size="none" text-anchor="none" style="mix-blend-mode: normal"><g transform="scale(5.12,5.12)"><path d="M25.03125,1c-0.43573,-0.01356 -0.83004,0.25669 -0.97461,0.66797l-5.76367,16.33203h-17.29297c-0.42654,-0.00004 -0.80616,0.27046 -0.9454,0.67363c-0.13924,0.40317 -0.00745,0.85029 0.32821,1.11348l13.44531,10.56445l-5.77734,17.33203c-0.13624,0.40793 0.00358,0.85728 0.34722,1.1159c0.34364,0.25861 0.81413,0.26857 1.16841,0.02473l15.43359,-10.61133l15.43359,10.61133c0.35427,0.24384 0.82477,0.23389 1.16841,-0.02473c0.34364,-0.25861 0.48346,-0.70797 0.34722,-1.1159l-5.77734,-17.33203l13.44531,-10.56445c0.33566,-0.26319 0.46745,-0.71031 0.32821,-1.11348c-0.13924,-0.40317 -0.51886,-0.67367 -0.9454,-0.67363h-17.29297l-5.76367,-16.33203c-0.13695,-0.38963 -0.49932,-0.655 -0.91211,-0.66797zM25,5.00391l5.05664,14.32812c0.14091,0.40023 0.51905,0.66798 0.94336,0.66797h15.10742l-11.72461,9.21289c-0.33278,0.2607 -0.4657,0.70247 -0.33203,1.10352l5.05664,15.16797l-13.54102,-9.30859c-0.34121,-0.23447 -0.79161,-0.23447 -1.13281,0l-13.54102,9.30859l5.05664,-15.16797c0.13367,-0.40104 0.00075,-0.84282 -0.33203,-1.10352l-11.72461,-9.21289h15.10742c0.42431,0.00001 0.80245,-0.26774 0.94336,-0.66797zM20,22c-1.09306,0 -2,0.90694 -2,2h-0.5c-0.276,0 -0.5,0.224 -0.5,0.5v1c0,0.276 0.224,0.5 0.5,0.5h0.5v4c0,1.09306 0.90694,2 2,2h8c1.09306,0 2,-0.90694 2,-2v-2l3,2v-6l-3,2v-2c0,-1.09306 -0.90694,-2 -2,-2zM20,24h8v6h-8z"></path></g></g></svg>